<svg width="25" height="25" viewBox="0 0 25 25" fill="none" xmlns="http://www.w3.org/2000/svg">
<g id="Items, Recipe, Invoice, QR">
<g id="Vector">
<path d="M9.5 15.75C9.36193 15.75 9.25 15.6381 9.25 15.5V14.5C9.25 14.3619 9.36193 14.25 9.5 14.25H10.5C10.6381 14.25 10.75 14.3619 10.75 14.5V15.5C10.75 15.6381 10.6381 15.75 10.5 15.75H9.5Z" fill="#FF6000"/>
<path d="M9.25 10.5C9.25 10.6381 9.36193 10.75 9.5 10.75H10.5C10.6381 10.75 10.75 10.6381 10.75 10.5V9.5C10.75 9.36193 10.6381 9.25 10.5 9.25H9.5C9.36193 9.25 9.25 9.36193 9.25 9.5V10.5Z" fill="#FF6000"/>
<path d="M14.5 10.75C14.3619 10.75 14.25 10.6381 14.25 10.5V9.5C14.25 9.36193 14.3619 9.25 14.5 9.25H15.5C15.6381 9.25 15.75 9.36193 15.75 9.5V10.5C15.75 10.6381 15.6381 10.75 15.5 10.75H14.5Z" fill="#FF6000"/>
<path fill-rule="evenodd" clip-rule="evenodd" d="M8.5 2.75C5.87665 2.75 3.75 4.87665 3.75 7.5V17.5C3.75 20.1234 5.87665 22.25 8.5 22.25H16.5C19.1234 22.25 21.25 20.1234 21.25 17.5V7.5C21.25 4.87665 19.1234 2.75 16.5 2.75H8.5ZM7.75 15.5C7.75 16.4665 8.5335 17.25 9.5 17.25H10.5C11.4665 17.25 12.25 16.4665 12.25 15.5V14.5C12.25 13.5335 11.4665 12.75 10.5 12.75H9.5C8.5335 12.75 7.75 13.5335 7.75 14.5V15.5ZM9.5 12.25C8.5335 12.25 7.75 11.4665 7.75 10.5V9.5C7.75 8.5335 8.5335 7.75 9.5 7.75H10.5C11.4665 7.75 12.25 8.5335 12.25 9.5V10.5C12.25 11.4665 11.4665 12.25 10.5 12.25H9.5ZM12.75 10.5C12.75 11.4665 13.5335 12.25 14.5 12.25H15.5C16.4665 12.25 17.25 11.4665 17.25 10.5V9.5C17.25 8.5335 16.4665 7.75 15.5 7.75H14.5C13.5335 7.75 12.75 8.5335 12.75 9.5V10.5ZM14.5 12.75C13.5335 12.75 12.75 13.5335 12.75 14.5V16.5C12.75 16.9142 13.0858 17.25 13.5 17.25C13.9142 17.25 14.25 16.9142 14.25 16.5V14.5C14.25 14.3619 14.3619 14.25 14.5 14.25H16.5C16.9142 14.25 17.25 13.9142 17.25 13.5C17.25 13.0858 16.9142 12.75 16.5 12.75H14.5Z" fill="#FF6000"/>
</g>
</g>
</svg>
