<svg width="24" height="25" viewBox="0 0 24 25" fill="none" xmlns="http://www.w3.org/2000/svg">
<g id="User, People">
<path id="Vector" d="M12 21.5C16.9706 21.5 21 17.4706 21 12.5C21 7.52944 16.9706 3.5 12 3.5C7.02944 3.5 3 7.52944 3 12.5C3 17.4706 7.02944 21.5 12 21.5ZM12 21.5C13.8394 21.5 15.55 20.9482 16.9751 20.0011C16.9264 19.5156 16.8068 19.039 16.6194 18.5866C16.3682 17.98 15.9999 17.4288 15.5356 16.9645C15.0713 16.5002 14.5201 16.1319 13.9135 15.8806C13.3068 15.6293 12.6567 15.5 12.0001 15.5C11.3434 15.5 10.6933 15.6293 10.0866 15.8806C9.48001 16.1319 8.92881 16.5002 8.46452 16.9645C8.00022 17.4288 7.63193 17.98 7.38065 18.5866C7.19326 19.039 7.07369 19.5156 7.025 20.0011C8.45013 20.9482 10.1606 21.5 12 21.5ZM15 10.5C15 12.1569 13.6569 13.5 12 13.5C10.3431 13.5 9 12.1569 9 10.5C9 8.84315 10.3431 7.5 12 7.5C13.6569 7.5 15 8.84315 15 10.5Z" stroke="#898B9A" stroke-width="1.5" stroke-linecap="round" stroke-linejoin="round"/>
</g>
</svg>
