<svg width="24" height="25" viewBox="0 0 24 25" fill="none" xmlns="http://www.w3.org/2000/svg">
<g id="Home">
<g id="Vector">
<path d="M11.2191 5.08519C11.6757 4.71997 12.3243 4.71997 12.7809 5.08519L21.5315 12.0857C21.8549 12.3444 22.3269 12.292 22.5857 11.9686C22.8444 11.6451 22.792 11.1731 22.4685 10.9144L13.7179 3.91389C12.7136 3.11041 11.2864 3.11041 10.2821 3.91389L1.53148 10.9144C1.20803 11.1731 1.15559 11.6451 1.41435 11.9686C1.67311 12.292 2.14508 12.3444 2.46852 12.0857L11.2191 5.08519Z" fill="#FF6000"/>
<path d="M13.7179 7.41392C12.7136 6.61044 11.2864 6.61044 10.2821 7.41392L4.03148 12.4144C3.85357 12.5567 3.75 12.7722 3.75 13.0001V19.5001C3.75 21.0188 4.98122 22.2501 6.5 22.2501H9.25V17C9.25 15.4812 10.4812 14.25 12 14.25C13.5188 14.25 14.75 15.4812 14.75 17V22.2501H17.5C19.0188 22.2501 20.25 21.0188 20.25 19.5001V13.0001C20.25 12.7722 20.1464 12.5567 19.9685 12.4144L13.7179 7.41392Z" fill="#FF6000"/>
</g>
</g>
</svg>
