<svg width="25" height="25" viewBox="0 0 25 25" fill="none" xmlns="http://www.w3.org/2000/svg">
<g id="Items, Recipe, Invoice, QR">
<path id="Vector" d="M16.5 13.5H14.5C13.9477 13.5 13.5 13.9477 13.5 14.5V16.5M8.5 21.5H16.5C18.7091 21.5 20.5 19.7091 20.5 17.5V7.5C20.5 5.29086 18.7091 3.5 16.5 3.5H8.5C6.29086 3.5 4.5 5.29086 4.5 7.5V17.5C4.5 19.7091 6.29086 21.5 8.5 21.5ZM8.5 14.5V15.5C8.5 16.0523 8.94772 16.5 9.5 16.5H10.5C11.0523 16.5 11.5 16.0523 11.5 15.5V14.5C11.5 13.9477 11.0523 13.5 10.5 13.5H9.5C8.94772 13.5 8.5 13.9477 8.5 14.5ZM8.5 9.5V10.5C8.5 11.0523 8.94772 11.5 9.5 11.5H10.5C11.0523 11.5 11.5 11.0523 11.5 10.5V9.5C11.5 8.94772 11.0523 8.5 10.5 8.5H9.5C8.94772 8.5 8.5 8.94772 8.5 9.5ZM13.5 9.5V10.5C13.5 11.0523 13.9477 11.5 14.5 11.5H15.5C16.0523 11.5 16.5 11.0523 16.5 10.5V9.5C16.5 8.94772 16.0523 8.5 15.5 8.5H14.5C13.9477 8.5 13.5 8.94772 13.5 9.5Z" stroke="#898B9A" stroke-width="1.5" stroke-linecap="round" stroke-linejoin="round"/>
</g>
</svg>
