<svg width="24" height="25" viewBox="0 0 24 25" fill="none" xmlns="http://www.w3.org/2000/svg">
<g id="User, People">
<g id="Vector">
<path d="M8.25 10.5C8.25 8.42893 9.92893 6.75 12 6.75C14.0711 6.75 15.75 8.42893 15.75 10.5C15.75 12.5711 14.0711 14.25 12 14.25C9.92893 14.25 8.25 12.5711 8.25 10.5Z" fill="#FF6000"/>
<path fill-rule="evenodd" clip-rule="evenodd" d="M12.0607 22.2498C12.0405 22.2499 12.0203 22.25 12 22.25C12 22.25 12.0001 22.25 12 22.25C6.61526 22.25 2.25 17.8848 2.25 12.5C2.25 7.11522 6.61522 2.75 12 2.75C17.3848 2.75 21.75 7.11522 21.75 12.5C21.75 17.8645 17.4175 22.2172 12.0607 22.2498ZM3.75 12.5C3.75 7.94365 7.44365 4.25 12 4.25C16.5563 4.25 20.25 7.94365 20.25 12.5C20.25 14.9641 19.1697 17.1759 17.4569 18.6876C17.4135 18.5567 17.3653 18.4273 17.3123 18.2996C17.0234 17.6019 16.5998 16.9681 16.0659 16.4341C15.532 15.9002 14.8981 15.4767 14.2005 15.1877C13.5028 14.8987 12.7551 14.75 12 14.75C11.2449 14.75 10.4972 14.8987 9.79961 15.1877C9.10199 15.4767 8.46811 15.9002 7.93418 16.4341C7.40024 16.9681 6.9767 17.6019 6.68773 18.2996C6.63481 18.4273 6.5866 18.5568 6.54314 18.6876C4.83031 17.1759 3.75 14.9641 3.75 12.5Z" fill="#FF6000"/>
</g>
</g>
</svg>
